<svg width="16" height="15" viewBox="0 0 16 15" fill="none" xmlns="http://www.w3.org/2000/svg">
<path d="M15.0747 13.9417L11.3471 10.2141C12.3629 8.97176 12.8624 7.38649 12.7421 5.78623C12.6219 4.18596 11.8912 2.69312 10.7012 1.6165C9.51112 0.539881 7.9528 -0.0381557 6.34852 0.00195626C4.74424 0.0420682 3.21676 0.697259 2.08201 1.83201C0.947259 2.96676 0.292068 4.49424 0.251956 6.09852C0.211844 7.7028 0.789881 9.26112 1.8665 10.4512C2.94312 11.6412 4.43596 12.3719 6.03623 12.4921C7.63649 12.6124 9.22176 12.1129 10.4641 11.0971L14.1917 14.8247C14.3095 14.9385 14.4672 15.0014 14.6309 15C14.7947 14.9986 14.9513 14.9329 15.0671 14.8171C15.1829 14.7013 15.2486 14.5447 15.25 14.3809C15.2514 14.2172 15.1885 14.0595 15.0747 13.9417ZM6.51486 11.2608C5.52676 11.2608 4.56086 10.9677 3.73929 10.4188C2.91772 9.86984 2.27738 9.08958 1.89925 8.1767C1.52112 7.26382 1.42219 6.25932 1.61496 5.29021C1.80772 4.3211 2.28354 3.43091 2.98223 2.73223C3.68091 2.03354 4.5711 1.55772 5.54021 1.36496C6.50932 1.17219 7.51382 1.27112 8.4267 1.64925C9.33958 2.02738 10.1198 2.66772 10.6688 3.48929C11.2177 4.31086 11.5108 5.27676 11.5108 6.26486C11.5093 7.58939 10.9824 8.85926 10.0458 9.79585C9.10926 10.7324 7.83939 11.2593 6.51486 11.2608Z" fill="white"/>
</svg>
